<svg width="100" height="100" viewBox="0 0 100 100" xmlns="http://www.w3.org/2000/svg">
  <defs>
    <linearGradient id="sysSoundGrad" x1="0%" y1="0%" x2="100%" y2="100%">
      <stop offset="0%" style="stop-color:#00d2ff;stop-opacity:1" />
      <stop offset="100%" style="stop-color:#3a7bd5;stop-opacity:1" />
    </linearGradient>
  </defs>

  <path d="M50 35 L53 30 H57 L60 35 L65 37 L70 34 L73 37 L71 42 L73 47 L78 50 L78 55 L73 58 L71 63 L74 68 L70 71 L65 68 L60 70 L57 75 H53 L50 70 L45 68 L40 71 L37 68 L39 63 L37 58 L32 55 V50 L37 47 L39 42 L36 37 L40 34 L45 37 Z" 
        fill="none" stroke="url(#sysSoundGrad)" stroke-width="2" opacity="0.5" />

  <path d="M35 60 V45 Q35 30 50 30 Q65 30 65 45 V60 L70 70 H30 Z" 
        fill="url(#sysSoundGrad)" stroke="#1a1a1a" stroke-width="2" />
  
  <circle cx="50" cy="75" r="4" fill="url(#sysSoundGrad)" />
</svg>
