<svg width="100" height="100" viewBox="0 0 100 100" xmlns="http://www.w3.org/2000/svg">
    <g id="loonsun">
        <path fill="#FF9F00" d="M50 10 L40 5 L35 15 L25 10 L25 25 L10 25 L15 40 L5 50 L15 60 L10 75 L25 75 L25 90 L35 85 L40 95 L50 90 Z" />
        <circle fill="#FF9F00" cx="50" cy="50" r="35" />
        
        <path fill="#607D8B" d="M50 15 A35 35 0 0 1 50 85 A25 25 0 0 0 50 15 Z" />
        
        <path fill="none" stroke="#FFFFFF" stroke-width="1" d="M50 15 A35 35 0 0 1 50 85" />
    </g>
</svg>
